<?xml version="1.0" encoding="UTF-8" standalone="no"?>
<svg width="135px" height="128px" viewBox="0 0 135 128" version="1.1" xmlns="http://www.w3.org/2000/svg" xmlns:xlink="http://www.w3.org/1999/xlink" xmlns:sketch="http://www.bohemiancoding.com/sketch/ns">
    <!-- Generator: Sketch Beta 3.3.2 (12041) - http://www.bohemiancoding.com/sketch -->
    <title>Group</title>
    <desc>Created with Sketch Beta.</desc>
    <defs></defs>
    <g id="Page-1" stroke="none" stroke-width="1" fill="none" fill-rule="evenodd" sketch:type="MSPage">
        <g id="Group" sketch:type="MSLayerGroup" fill="#FFFFFF">
            <path d="M9.76863244,91 C9.3834296,91 8.99222599,90.9188435 8.61902467,90.7467637 C7.22777077,90.1063479 6.61546212,88.4508941 7.25131223,87.0491416 C7.32978375,86.8752015 15.1605491,69.5809524 17.2735102,62.5212637 C17.4436087,61.9538656 17.6702529,61.2143876 17.9412105,60.3307348 C19.5251812,55.1657838 22.4736332,45.5514082 24.4753493,36.462341 C27.6963745,21.8350958 26.1038642,19.0141503 25.8599101,18.686036 C24.7229962,18.20305 21.9236401,19.7338623 18.1362353,24.2886277 C14.8028113,28.2976212 12.1940948,32.8205285 12.1677838,32.8656413 C11.4019941,34.1992595 9.70839401,34.6550384 8.3843025,33.8846326 C7.060211,33.1132967 6.60715337,31.4076141 7.37201989,30.0732983 C7.48626519,29.8737788 10.2163817,25.1343765 13.8477667,20.7561091 C19.4637888,13.9845378 24.3818759,11.6305331 28.4677033,13.7587412 C32.5699175,15.896716 33.0661344,22.7089819 30.1280684,36.5379166 C28.0818081,46.1695002 24.8072377,56.8468171 23.2336529,61.9780497 C22.9670806,62.8472851 22.7441291,63.5749035 22.5770309,64.1327675 C20.3555945,71.5540562 12.6176102,88.6446001 12.2891838,89.3687303 C11.8238939,90.3944653 10.8192276,91 9.76863244,91" id="Fill-1" sketch:type="MSShapeGroup"></path>
            <path d="M14.8306918,58 C14.0449961,58 13.2628374,57.6718873 12.7035126,57.0296899 C11.6728176,55.8458689 11.7878894,54.04434 12.9617169,53.0046032 C13.1293729,52.8557637 17.1231689,49.3333076 21.6859576,46.7221963 C26.2459167,44.1125117 34.9293634,41.2600711 35.2965088,41.1397632 C36.7841901,40.6540137 38.378926,41.4750087 38.8611432,42.97339 C39.3433605,44.4722468 38.5293684,46.0814255 37.042866,46.5676505 C36.9582128,46.595231 28.5383938,49.3618391 24.4792804,51.6850196 C20.4352583,53.9991651 16.7333865,57.2588933 16.6963654,57.2917046 C16.1592061,57.7667547 15.4935341,58 14.8306918,58" id="Fill-2" sketch:type="MSShapeGroup"></path>
            <path d="M38.8680479,65 C37.6365516,65 36.6334281,64.690591 35.9244715,64.3690576 C29.673305,61.5356456 32.0633518,49.9753624 35.0472152,38.3770734 C35.1401853,38.0161351 35.2264806,37.6799123 35.3046708,37.3726018 C36.5781228,32.3642338 42.3694448,13.7717169 42.6152196,12.9826891 C43.0760176,11.5048941 44.6743882,10.6717983 46.1857482,11.1222716 C47.6971083,11.5727449 48.5486191,13.1361112 48.0878211,14.6143725 C48.0279865,14.8064998 42.0945871,33.8555523 40.8568928,38.7228559 C40.7775107,39.0350629 40.689785,39.3761821 40.595623,39.7427163 C39.8103833,42.7946031 38.6239418,47.4063587 38.0527716,51.6702333 C37.2422631,57.7231771 38.2451482,59.1615673 38.364579,59.3068286 C40.1572332,60.0543532 43.4221524,56.4403074 44.7049014,54.4157423 C45.5356727,53.1041934 47.2963833,52.6952233 48.6401588,53.5057022 C49.9825041,54.3161811 50.4027766,56.0343685 49.576773,57.3494148 C49.5164616,57.4452453 48.0761402,59.7223273 45.9392583,61.7140163 C43.1999777,64.2664653 40.763446,65 38.8680479,65" id="Fill-3" sketch:type="MSShapeGroup"></path>
            <path d="M64.5021731,59.9999999 C63.3486156,60.0002344 62.3974281,59.7105643 61.7047182,59.3967355 C56.7459313,57.1490363 57.735243,49.0542232 59.1508746,42.2531916 C59.4678572,40.7300195 60.9858727,39.7477212 62.5444102,40.056859 C64.1015091,40.366935 65.1068857,41.8532827 64.7896633,43.3764548 C63.0138897,51.9075322 63.9962478,53.9887004 64.2142033,54.3231697 C65.0052211,54.5694479 66.4589769,53.6758098 67.9640446,52.0051053 C69.0147386,50.839623 70.8331922,50.7270387 72.0251138,51.7546052 C73.2172751,52.7826408 73.3318875,54.5612386 72.2814333,55.7274246 C69.2624262,59.0779811 66.5604017,59.9999999 64.5021731,59.9999999" id="Fill-4" sketch:type="MSShapeGroup"></path>
            <path d="M52.0140496,62 L52.0133352,62 C51.4482732,61.9997643 50.8696383,61.94272 50.2936227,61.8302816 C47.4406906,61.2723324 45.9519558,59.7415667 45.2056834,58.5554237 C43.331192,55.5771015 43.9853114,51.8220819 44.8723135,48.5415667 C45.8795669,44.8145978 51.2449176,34 58.7209761,34 C59.4339115,34 60.1430369,34.1023025 60.8283502,34.3036074 C64.4094575,35.3563329 64.9785675,38.546803 64.9992841,40.3550112 C65.0223819,42.3517953 64.4825607,44.5454056 63.9608368,46.6668855 C63.8348706,47.1795765 63.7093806,47.688496 63.5955586,48.1846866 C61.5784325,56.9645494 57.357255,62 52.0140496,62 L52.0140496,62 Z M58.7209761,39.65728 C55.8687583,39.65728 51.4449395,46.1120007 50.3926812,50.0042093 C49.6280735,52.833085 49.5147277,54.7035232 50.0562157,55.5641369 C50.145035,55.7053332 50.3814895,56.0808351 51.4008871,56.2802542 C51.6130532,56.321741 51.8195045,56.34272 52.0138115,56.34272 C54.8529326,56.3429558 57.0253138,51.2726186 58.0228042,46.9301848 C58.1430555,46.406415 58.2752129,45.8696805 58.4083227,45.3284674 C58.7866976,43.7894515 59.5627351,40.6343394 59.2115061,39.7301174 C59.2081724,39.7289388 59.2048387,39.727996 59.201505,39.7270531 C59.0422018,39.6801448 58.8850417,39.65728 58.7209761,39.65728 L58.7209761,39.65728 Z" id="Fill-5" sketch:type="MSShapeGroup"></path>
            <path d="M57.0140496,104 L57.0130971,104 C56.4482732,103.999764 55.8696383,103.94272 55.2936227,103.830282 C52.4406906,103.272332 50.9519558,101.741567 50.2056834,100.555424 C48.331192,97.5771015 48.9853114,93.8220819 49.8723135,90.5415667 C50.8795669,86.8145978 56.2449176,76 63.7209761,76 C64.4339115,76 65.1430369,76.1023025 65.8283502,76.3036074 C69.4094575,77.3563329 69.9785675,80.546803 69.9992841,82.3550112 C70.0223819,84.3517953 69.4825607,86.5454056 68.9608368,88.6668855 C68.8348706,89.1795765 68.7093806,89.688496 68.5955586,90.1846866 C66.5786706,98.964078 62.3570169,104 57.0140496,104 L57.0140496,104 Z M63.7209761,81.65728 C60.8689965,81.65728 56.4449395,88.1120007 55.3926812,92.0042093 C54.6280735,94.833085 54.5147277,96.7035232 55.0562157,97.5641369 C55.145035,97.7053332 55.3814895,98.0808351 56.4008871,98.2802542 C56.6130532,98.321741 56.8195045,98.34272 57.0138115,98.34272 C59.8531707,98.3429558 62.0253138,93.2726186 63.0228042,88.9301848 C63.1430555,88.406415 63.2752129,87.8696805 63.4083227,87.3284674 C63.7866976,85.7894515 64.5627351,82.6343394 64.2115061,81.7301174 C64.2081724,81.7289388 64.2048387,81.727996 64.201505,81.7270531 C64.0422018,81.6801448 63.8850417,81.65728 63.7209761,81.65728 L63.7209761,81.65728 Z" id="Fill-6" sketch:type="MSShapeGroup"></path>
            <path d="M31.9853422,109 C31.9848659,109 31.9853422,109 31.9853422,109 C31.428796,109 30.8591517,108.944128 30.2921271,108.834255 C27.4696256,108.28699 25.9843116,106.764891 25.2351056,105.584334 C23.290885,102.521198 24.0188961,98.5440079 24.8702665,95.4214938 C25.8776224,91.7252993 31.2435187,81 38.7203375,81 C39.4333454,81 40.1425429,81.1014577 40.8279259,81.3011004 C44.4093974,82.3451333 44.9785653,85.5092591 44.999284,87.3025364 C45.0223841,89.2828327 44.4825081,91.4583299 43.9607311,93.5622923 C43.8347521,94.0707499 43.7092494,94.5754671 43.5954158,95.0675606 C41.5140234,104.05148 37.3902944,109 31.9853422,109 L31.9853422,109 Z M38.7203375,86.6105666 C35.8680678,86.6105666 31.443561,93.0119892 30.3911956,96.872059 C29.4097977,100.471939 29.6836651,101.983519 30.0861311,102.617747 C30.1766265,102.760349 30.4173917,103.139529 31.399504,103.330055 C31.6024041,103.369329 31.7995886,103.389433 31.985104,103.389433 C34.8054622,103.389433 36.9997356,98.2363618 38.0220946,93.8234174 C38.1423582,93.3039725 38.274529,92.77167 38.4076523,92.2349258 C38.7860657,90.7083841 39.5621821,87.5795582 39.2109174,86.6828026 C39.2075834,86.6816337 39.2042493,86.6806986 39.2009153,86.6797636 C39.0415959,86.6332426 38.8844198,86.6105666 38.7203375,86.6105666 L38.7203375,86.6105666 Z" id="Fill-7" sketch:type="MSShapeGroup"></path>
            <path d="M44.1697693,107 C43.0633933,107 42.1603685,106.706229 41.5225645,106.401924 C35.9647539,103.751896 38.0285181,93.1859621 40.6190848,82.5910019 C40.698924,82.2642253 40.7730767,81.9599204 40.8404055,81.6818325 C41.9247177,77.1945057 44.9529215,65.574038 45.0814377,65.0817663 C45.4719902,63.5834158 46.9689187,62.6948455 48.4249041,63.096528 C49.8808895,63.4984445 50.7445633,65.0389295 50.3537833,66.53728 C50.322621,66.6573634 47.2102561,78.6003943 46.1382269,83.0373938 C46.0697608,83.3201633 45.9942433,83.6293839 45.9130394,83.9617785 C45.2593131,86.6359163 44.2712174,90.6766171 43.7701182,94.4413369 C43.0865944,99.5758968 43.747372,101.067927 43.9063681,101.340163 C45.1451271,101.748868 47.6906562,99.0908816 48.9478396,97.0047545 C49.7412277,95.6885188 51.4219457,95.2784094 52.7027851,96.092308 C53.9833972,96.9059725 54.3841855,98.6304449 53.5962566,99.9501919 C53.5439403,100.03844 52.2885765,102.12644 50.4274811,103.951099 C48.013425,106.318123 45.855264,107 44.1697693,107" id="Fill-8" sketch:type="MSShapeGroup"></path>
            <path d="M69.1497316,102 C68.3029128,102 67.4187712,101.820868 66.5161958,101.389918 C61.8098771,99.1430242 62.7486375,91.0511122 64.0922596,84.2525181 C64.3933457,82.7298919 65.8339161,81.7474768 67.3131749,82.0569727 C68.7910682,82.3669376 69.7453039,83.8527525 69.4442178,85.3753788 C67.7578629,93.908088 68.6920717,95.9861657 68.8982576,96.3188738 C70.1415177,96.731535 72.6865255,94.0682287 73.9452609,91.9772554 C74.7390539,90.6586151 76.4206298,90.2482985 77.702123,91.0633045 C78.9833887,91.8783105 79.3843816,93.6056261 78.5960505,94.9277833 C78.5437075,95.0157083 77.287703,97.107385 75.4256576,98.9350523 C74.1216341,100.215006 71.8230935,101.999766 69.1497316,102" id="Fill-9" sketch:type="MSShapeGroup"></path>
            <path d="M72.735391,57 C72.3180031,57 71.9402891,56.9627952 71.5945926,56.9061792 C69.338981,56.5371353 67.5436794,55.4105925 66.401953,53.6492572 C64.2544586,50.3357192 65.0437602,45.7098455 65.7056878,43.2473962 C66.7972998,39.1839851 71.4906516,30.4334626 79.0296192,29.3219403 C80.5530038,29.097325 81.9661832,30.1441433 82.191466,31.6591412 C82.4162847,33.1743702 81.3657386,34.583993 79.844674,34.8083772 C75.4056063,35.4625809 71.895511,41.6626104 71.0846323,44.681052 C70.3960234,47.2435614 70.3943994,49.5833042 71.0802241,50.6416767 C71.2693131,50.9330758 71.6013209,51.286868 72.4975797,51.4338385 C72.8922305,51.4973871 76.6649624,51.701898 87.7400106,39.1955394 C93.7943393,32.3588687 98.8962626,25.2368072 98.947073,25.1656328 C99.8384595,23.91777 101.576686,23.6259087 102.829546,24.51374 C104.082406,25.4015713 104.375668,27.1326343 103.484281,28.3807282 C103.270831,28.6795221 98.1853807,35.7805548 91.943587,42.8332906 C81.2924231,54.8675411 75.8907415,56.9997689 72.735391,57" id="Fill-10" sketch:type="MSShapeGroup"></path>
            <path d="M84.7657488,56 C84.7003687,56 84.6352188,55.9976576 84.5693783,55.9929727 C83.0474492,55.8842839 81.9000745,54.5409002 82.0068927,52.9923196 C82.5320054,45.3752049 84.01641,35.9844021 84.8106401,31.6366173 C85.9402885,25.4526015 90.4830545,2.48811809 90.5288666,2.25692023 C90.8297532,0.734809054 92.2863021,-0.250885592 93.7822173,0.0559727696 C95.2779022,0.362362645 96.2464025,1.84441826 95.9450555,3.36629519 C95.8994736,3.59725881 91.364765,26.5209839 90.2427136,32.6640072 C89.4696629,36.8949047 88.0264662,46.0207787 87.5186194,53.3856136 C87.4161752,54.867435 86.2031902,56 84.7657488,56" id="Fill-11" sketch:type="MSShapeGroup"></path>
            <path d="M97.2079488,53.9999999 C95.5557699,54.0002363 93.8493522,53.6507978 92.6458122,52.5228066 C91.0074268,50.9869796 90.7766782,49.0154183 90.9550583,47.295415 C89.8885181,48.0382673 88.7022784,48.9577302 87.6439207,49.8864138 C86.4738124,50.9127416 84.7017003,50.7857805 83.6861258,49.6019927 C82.6710189,48.4184412 82.7967967,46.6265642 83.9671388,45.5997635 C86.3515413,43.5085704 90.795615,40 93.7740725,40 C95.3586867,40 96.2384305,40.8473529 96.6216088,41.3525965 C97.7734816,42.8699822 97.2921124,44.6885755 96.9054273,46.1499282 C96.7609464,46.6967829 96.4787644,47.7630667 96.5000391,48.2817866 C97.2294573,48.3997635 98.8624655,48.2219707 100.106918,47.868513 L100.307742,47.8193362 L131.636018,41.3899519 C133.156575,41.0792873 134.635283,42.0708604 134.943415,43.6062146 C135.251548,45.1418052 134.27034,46.6393312 132.751888,46.9511779 L101.520867,53.3602296 C100.541296,53.6323565 98.9029108,53.9999999 97.2079488,53.9999999" id="Fill-12" sketch:type="MSShapeGroup"></path>
            <path d="M2.80447617,128 C1.49295581,128 0.320376605,127.087155 0.0546574799,125.768036 C-0.248252966,124.265885 0.73836963,122.805795 2.25876955,122.506521 L78.4764177,107.503506 L78.5304503,107.49796 C78.8270453,107.449891 82.1581246,106.844409 83.8689253,103.724789 C84.8742605,101.674239 86.9656291,86.7310786 88.4020562,73.4784155 C88.5669611,71.9556973 89.9465486,70.8526568 91.4917427,71.0160445 C93.0331943,71.1789701 94.148934,72.5456957 93.9837951,74.068645 C93.9763101,74.1388994 93.2118998,81.1717359 92.233464,88.5209484 C90.1947246,103.832251 89.2558192,105.544471 88.8046113,106.366956 C85.8700055,111.71854 80.3273291,112.826433 79.4050312,112.976186 L3.35579657,127.945923 C3.1707756,127.982436 2.98622244,128 2.80447617,128" id="Fill-13" sketch:type="MSShapeGroup"></path>
            <path d="M106.447913,83 C103.791111,83 98.9141194,81.8238956 98.7079076,81.7740952 C98.3151234,81.6787876 98.0322708,81.3716138 98.0025725,81.0081999 C97.9728742,80.6443567 98.2025572,80.3034817 98.5754627,80.1581591 C98.787662,80.0753016 103.803565,78.1279354 106.525272,78.0188898 C106.835907,78.006225 107.133609,78 107.409755,78 C110.371924,78 111.915518,78.8148371 111.997907,80.421543 C112.022096,80.8961491 111.836242,81.3417765 111.460702,81.7105568 C110.688546,82.4682952 109.111421,82.8999699 106.773158,82.993775 C106.669213,82.9978534 106.560479,83 106.447913,83 L106.447913,83 Z" id="Fill-15" sketch:type="MSShapeGroup"></path>
            <path d="M99.9748391,76 C99.6399391,76 99.3233197,75.8455242 99.1439264,75.5842878 C98.9347968,75.279258 98.9550273,74.8912164 99.195112,74.6053598 C99.4988132,74.2434636 102.220424,71.0432644 104.237136,70.013135 C105.590873,69.3222423 106.630671,69 107.509601,69 C108.485296,69 109.254542,69.3954495 109.733737,70.1436442 C110.005752,70.5680715 110.07083,71.0508902 109.922148,71.5395916 C109.644528,72.4514131 108.638121,73.3556088 106.930716,74.2277764 C104.992245,75.2180341 100.340694,75.9559885 100.143508,75.9867094 C100.08696,75.9956424 100.030656,76 99.9748391,76 L99.9748391,76 Z" id="Fill-17" sketch:type="MSShapeGroup"></path>
            <path d="M104.686678,93 C103.556774,93 102.249961,92.435483 101.352401,91.9621121 C99.4278522,90.9466148 96.3647229,87.6373151 96.2350539,87.4968644 C95.9761979,87.2161891 95.9263067,86.8156444 96.1094823,86.486569 C96.2926578,86.1577198 96.671783,85.9650241 97.0646464,86.0052821 C97.5621127,86.0541345 101.981946,86.5143877 103.984344,87.570143 C106.671,88.9879943 107.568801,90.4836476 106.652441,92.0159402 C106.432871,92.3834643 105.885514,93 104.686678,93 L104.686678,93 Z" id="Fill-19" sketch:type="MSShapeGroup"></path>
            <path d="M81.8374705,99 C81.2954147,99 80.7337884,98.9621401 80.1525917,98.8859558 C78.1215891,98.6197753 76.5454856,97.7541079 75.468656,96.3124129 C73.4610924,93.6248259 73.9740201,89.9208288 74.3483617,87.2160538 C74.4002462,86.8427972 74.4500825,86.4851026 74.4892234,86.1510994 C74.8510491,83.0616866 76.1743298,75.7856213 76.2305379,75.4771678 C76.5065722,73.9641661 77.9329391,72.9665699 79.4146039,73.2466865 C80.8974064,73.5281968 81.8759287,74.9828989 81.600122,76.4965973 C81.5864682,76.5702267 80.2529471,83.9022689 79.9120573,86.8130667 C79.8685927,87.1840006 79.8137499,87.5814132 79.7561764,87.9964783 C79.5440874,89.5303842 79.1884059,92.0981204 79.8119294,92.9328959 C79.9703135,93.1449577 80.3189405,93.287571 80.8477976,93.3567872 C82.9363737,93.6308649 83.7043999,93.0206937 83.9563125,92.8202453 C85.4318331,91.6470535 85.8041267,88.4893536 86.0760648,86.1833849 C86.1090615,85.9023391 86.1413755,85.6294228 86.173917,85.3674231 C86.3957913,83.5959058 87.5452136,73.5651276 87.5565918,73.4638582 C87.7320431,71.9350623 89.0864999,70.8399129 90.5861422,71.0192248 C92.0841915,71.1980721 93.1564699,72.5821643 92.9812461,74.1111925 C92.9336854,74.5255608 91.8170322,84.2732029 91.5915169,86.0742183 C91.5603407,86.3232109 91.5296197,86.5821911 91.4984435,86.8490684 C91.1118135,90.1280129 90.5825012,94.6184736 87.3124163,97.2180306 C85.8214215,98.4033004 83.9852131,99 81.8374705,99" id="Fill-20" sketch:type="MSShapeGroup"></path>
        </g>
    </g>
</svg>